<svg width="22" height="35" viewBox="0 0 19 32" fill="none" xmlns="http://www.w3.org/2000/svg">
<path d="M18.2314 2.24061C18.1854 1.55121 17.5879 1 16.8989 1H6.97369C6.23833 1 5.68721 1.55152 5.68721 2.28649V11.4766L2.24093 13.7283C1.82728 14.0041 1.64344 14.4637 1.59748 14.7391C1.55152 15.0608 1.50557 15.5204 1.41365 15.9797C1.22981 17.3121 1 19.1502 1 20.1614C1 22.0454 2.7002 26.273 4.21653 27.5595C4.95189 28.2029 5.50302 29.0758 5.77883 30.1329V30.1789C5.87075 30.5466 6.10054 30.8223 6.42227 31.0062C6.60611 31.144 6.83591 31.19 7.06571 31.19C7.20359 31.19 7.34147 31.19 7.43339 31.144L12.1662 29.6277C12.8097 29.3979 13.223 28.7545 13.0854 28.1574C12.8097 26.0435 12.8097 23.9297 13.1314 21.9078L13.2233 21.4942H16.8994C17.6348 21.4942 18.1859 20.9426 18.1859 20.2077L18.2314 2.24061ZM12.7172 21.77C12.3955 23.8379 12.3955 25.9977 12.6713 28.2033C12.7632 28.6629 12.3955 29.0766 12.0278 29.1681L7.34093 30.6848C7.11113 30.7767 6.88133 30.7308 6.65153 30.5929C6.46769 30.455 6.28385 30.2712 6.23788 30.0873V30.0414C5.91617 28.8927 5.31869 27.8816 4.49171 27.1926C3.06732 25.998 1.45906 21.9082 1.45906 20.1621C1.45906 19.1514 1.68885 17.3593 1.8727 16.0264C1.91866 15.5208 2.01058 15.0616 2.01058 14.7858C2.1025 14.4641 2.28634 14.2343 2.47019 14.0964L5.59478 12.0285V15.1991C5.08921 15.5208 4.67559 15.9804 4.40014 16.5315C4.12438 17.129 4.17034 17.818 4.49206 18.3236L5.91645 20.5294C6.28413 21.1268 6.97318 21.5401 7.75447 21.5401C9.04095 21.5401 9.63845 20.6209 10.0062 19.794L11.1089 16.4856C11.2008 16.1639 11.4306 15.8421 11.7523 15.6583C12.0741 15.4745 12.4417 15.4285 12.7631 15.5204C13.0848 15.6123 13.4066 15.8421 13.5904 16.1639C13.7742 16.4856 13.8202 16.8533 13.7283 17.1746L12.7172 21.77ZM5.64078 15.7966V19.1969L4.95138 18.0942C4.67562 17.7266 4.67562 17.221 4.85946 16.7618C5.08926 16.3937 5.31907 16.0724 5.64078 15.7966ZM17.7714 20.1617C17.7714 20.6213 17.4037 20.989 16.9441 20.989H13.3599L14.1872 17.3129C14.3251 16.8533 14.2332 16.3937 14.0034 15.9345C13.7736 15.5208 13.3599 15.1991 12.9007 15.1072C11.9359 14.8314 10.9707 15.4289 10.6949 16.3478L9.59221 19.6565C9.13261 20.7133 8.58145 21.1269 7.80016 21.1269C7.20268 21.1269 6.69746 20.8511 6.37577 20.3915L6.32981 20.3456C6.14597 20.0698 6.05405 19.794 6.05405 19.4723L6.10001 2.33258C6.10001 1.87298 6.46769 1.5053 6.9273 1.5053H16.8525C17.3121 1.5053 17.6798 1.82702 17.7258 2.28662L17.725 20.1615L17.7714 20.1617Z" fill="#5A5A5A" stroke="#5A5A5A"/>
<path d="M11.2498 3.25403H12.6742C12.8121 3.25403 12.904 3.16211 12.904 3.02423C12.904 2.88635 12.8121 2.79443 12.6742 2.79443H11.2498C11.1119 2.79443 11.02 2.88635 11.02 3.02423C11.02 3.16246 11.1119 3.25403 11.2498 3.25403Z" fill="#5A5A5A" stroke="#5A5A5A" stroke-width="4"/>
<mask id="path-3-inside-1_98_164" fill="white">
<path d="M12.4882 6.83363H10.6042C10.4663 6.83363 10.3744 6.92555 10.3744 7.06343V10.8774H9.36359C9.22571 10.8774 9.13379 10.9693 9.13379 11.1072C9.13379 11.245 9.22571 11.3369 9.36359 11.3369H10.3744V12.2561H9.36359C9.22571 12.2561 9.13379 12.3481 9.13379 12.4859C9.13379 12.6238 9.22571 12.7157 9.36359 12.7157H10.3744V13.8644C10.3744 14.0023 10.4663 14.0942 10.6042 14.0942C10.742 14.0942 10.834 14.0023 10.834 13.8644V12.7157H12.672C12.8099 12.7157 12.9018 12.6238 12.9018 12.4859C12.9018 12.3481 12.8099 12.2561 12.672 12.2561H10.834V11.3369H12.4882C13.7288 11.3369 14.74 10.3262 14.74 9.08522C14.74 7.84435 13.7292 6.8335 12.4882 6.8335L12.4882 6.83363ZM12.4882 10.877H10.8339V7.29286H12.4882C13.453 7.29286 14.2802 8.12014 14.2802 9.0849C14.2802 10.0501 13.4533 10.877 12.4882 10.877Z"/>
</mask>
<path d="M12.4882 6.83363H10.6042C10.4663 6.83363 10.3744 6.92555 10.3744 7.06343V10.8774H9.36359C9.22571 10.8774 9.13379 10.9693 9.13379 11.1072C9.13379 11.245 9.22571 11.3369 9.36359 11.3369H10.3744V12.2561H9.36359C9.22571 12.2561 9.13379 12.3481 9.13379 12.4859C9.13379 12.6238 9.22571 12.7157 9.36359 12.7157H10.3744V13.8644C10.3744 14.0023 10.4663 14.0942 10.6042 14.0942C10.742 14.0942 10.834 14.0023 10.834 13.8644V12.7157H12.672C12.8099 12.7157 12.9018 12.6238 12.9018 12.4859C12.9018 12.3481 12.8099 12.2561 12.672 12.2561H10.834V11.3369H12.4882C13.7288 11.3369 14.74 10.3262 14.74 9.08522C14.74 7.84435 13.7292 6.8335 12.4882 6.8335L12.4882 6.83363ZM12.4882 10.877H10.8339V7.29286H12.4882C13.453 7.29286 14.2802 8.12014 14.2802 9.0849C14.2802 10.0501 13.4533 10.877 12.4882 10.877Z" fill="#5A5A5A"/>
<path d="M12.4882 6.83363V10.8336H15.3343L16.2672 8.14474L12.4882 6.83363ZM10.3744 10.8774V14.8774H14.3744V10.8774H10.3744ZM10.3744 11.3369H14.3744V7.33695H10.3744V11.3369ZM10.3744 12.2561V16.2561H14.3744V12.2561H10.3744ZM10.3744 12.7157H14.3744V8.71573H10.3744V12.7157ZM10.834 12.7157V8.71573H6.83396V12.7157H10.834ZM10.834 12.2561H6.83396V16.2561H10.834V12.2561ZM10.834 11.3369V7.33695H6.83396V11.3369H10.834ZM12.4882 6.8335V2.8335H9.64208L8.70919 5.52239L12.4882 6.8335ZM10.8339 10.877H6.83391V14.877H10.8339V10.877ZM10.8339 7.29286V3.29286H6.83391V7.29286H10.8339ZM12.4882 2.83363H10.6042V10.8336H12.4882V2.83363ZM10.6042 2.83363C9.62624 2.83363 8.50048 3.17706 7.60915 4.06838C6.71781 4.95971 6.37436 6.08548 6.37436 7.06343H14.3744C14.3744 7.9035 14.0769 8.91437 13.266 9.72527C12.4551 10.5362 11.4442 10.8336 10.6042 10.8336V2.83363ZM6.37436 7.06343V10.8774H14.3744V7.06343H6.37436ZM10.3744 6.87735H9.36359V14.8774H10.3744V6.87735ZM9.36359 6.87735C8.38567 6.87735 7.25991 7.22078 6.36858 8.1121C5.47724 9.00343 5.13379 10.1292 5.13379 11.1072H13.1338C13.1338 11.9472 12.8363 12.9581 12.0254 13.769C11.2145 14.5799 10.2036 14.8774 9.36359 14.8774V6.87735ZM5.13379 11.1072C5.13379 12.0851 5.47724 13.2109 6.36858 14.1022C7.25991 14.9935 8.38567 15.3369 9.36359 15.3369V7.33695C10.2036 7.33695 11.2145 7.63441 12.0254 8.44531C12.8363 9.25621 13.1338 10.2671 13.1338 11.1072H5.13379ZM9.36359 15.3369H10.3744V7.33695H9.36359V15.3369ZM6.37436 11.3369V12.2561H14.3744V11.3369H6.37436ZM10.3744 8.25614H9.36359V16.2561H10.3744V8.25614ZM9.36359 8.25614C8.38567 8.25614 7.25991 8.59956 6.36858 9.49088C5.47724 10.3822 5.13379 11.508 5.13379 12.4859H13.1338C13.1338 13.326 12.8363 14.3369 12.0254 15.1478C11.2145 15.9587 10.2036 16.2561 9.36359 16.2561V8.25614ZM5.13379 12.4859C5.13379 13.4639 5.47724 14.5897 6.36858 15.481C7.25991 16.3723 8.38567 16.7157 9.36359 16.7157V8.71573C10.2036 8.71573 11.2145 9.01319 12.0254 9.82409C12.8363 10.635 13.1338 11.6459 13.1338 12.4859H5.13379ZM9.36359 16.7157H10.3744V8.71573H9.36359V16.7157ZM6.37436 12.7157V13.8644H14.3744V12.7157H6.37436ZM6.37436 13.8644C6.37436 14.8423 6.71781 15.9681 7.60915 16.8594C8.50048 17.7508 9.62624 18.0942 10.6042 18.0942V10.0942C11.4442 10.0942 12.4551 10.3917 13.266 11.2025C14.0769 12.0134 14.3744 13.0243 14.3744 13.8644H6.37436ZM10.6042 18.0942C11.5821 18.0942 12.7078 17.7508 13.5992 16.8594C14.4905 15.9681 14.834 14.8423 14.834 13.8644H6.83396C6.83396 13.0243 7.13145 12.0134 7.94236 11.2025C8.75326 10.3917 9.76412 10.0942 10.6042 10.0942V18.0942ZM14.834 13.8644V12.7157H6.83396V13.8644H14.834ZM10.834 16.7157H12.672V8.71573H10.834V16.7157ZM12.672 16.7157C13.6499 16.7157 14.7757 16.3723 15.667 15.481C16.5583 14.5897 16.9018 13.4639 16.9018 12.4859H8.90179C8.90179 11.6459 9.19928 10.635 10.0102 9.82409C10.8211 9.01319 11.832 8.71573 12.672 8.71573V16.7157ZM16.9018 12.4859C16.9018 11.508 16.5583 10.3822 15.667 9.49088C14.7757 8.59956 13.6499 8.25614 12.672 8.25614V16.2561C11.832 16.2561 10.8211 15.9587 10.0102 15.1478C9.19928 14.3369 8.90179 13.326 8.90179 12.4859H16.9018ZM12.672 8.25614H10.834V16.2561H12.672V8.25614ZM14.834 12.2561V11.3369H6.83396V12.2561H14.834ZM10.834 15.3369H12.4882V7.33695H10.834V15.3369ZM12.4882 15.3369C15.9375 15.3369 18.74 12.5358 18.74 9.08522H10.74C10.74 8.11658 11.5202 7.33695 12.4882 7.33695V15.3369ZM18.74 9.08522C18.74 5.63527 15.9384 2.8335 12.4882 2.8335V10.8335C11.52 10.8335 10.74 10.0534 10.74 9.08522H18.74ZM8.70919 5.52239L8.70914 5.52253L16.2672 8.14474L16.2672 8.1446L8.70919 5.52239ZM12.4882 6.87703H10.8339V14.877H12.4882V6.87703ZM14.8339 10.877V7.29286H6.83391V10.877H14.8339ZM10.8339 11.2929H12.4882V3.29286H10.8339V11.2929ZM12.4882 11.2929C11.8129 11.2929 11.269 11.0069 10.9176 10.6555C10.5662 10.3041 10.2802 9.7602 10.2802 9.0849H18.2802C18.2802 5.91099 15.6621 3.29286 12.4882 3.29286V11.2929ZM10.2802 9.0849C10.2802 8.41058 10.5657 7.86652 10.9176 7.51453C11.2696 7.16255 11.8137 6.87703 12.4882 6.87703V14.877C15.6626 14.877 18.2802 12.259 18.2802 9.0849H10.2802Z" fill="#5A5A5A" mask="url(#path-3-inside-1_98_164)"/>
</svg>
