<svg width="25" height="33" viewBox="0 0 25 33" fill="none" xmlns="http://www.w3.org/2000/svg">
<path d="M12.6683 4.86509C6.24729 4.86509 1 10.0779 1 16.5334C1 22.989 6.24729 28.1669 12.6683 28.1669C19.0893 28.1669 24.3366 22.9196 24.3366 16.4985C24.3366 10.0775 19.0893 4.86509 12.6683 4.86509ZM16.0858 20.4344L12.392 16.7751V6.41857H12.9099V16.5679L16.4311 20.0891L16.0858 20.4344Z" stroke="#5A5A5A" stroke-width="0.94" stroke-miterlimit="10" stroke-linecap="round" stroke-linejoin="round"/>
<path d="M17.8115 5.59103V1H17.846H7.4895V5.55686C9.04301 4.90081 10.8037 4.45223 12.6677 4.45223C14.532 4.45197 16.258 4.90084 17.8118 5.59114L17.8115 5.59103ZM8.00732 1.41391H17.3282V4.93512C15.8783 4.41719 14.3247 4.07219 12.6677 4.07219C11.0107 4.07219 9.4226 4.41747 8.00732 4.93512V1.41391Z" stroke="#5A5A5A" stroke-width="0.94" stroke-miterlimit="10" stroke-linecap="round" stroke-linejoin="round"/>
<path d="M7.52403 27.4089V31.9999L7.4895 32.0002H17.846V27.443C16.2925 28.099 14.5318 28.5476 12.6677 28.5476C10.8035 28.5479 9.0775 28.099 7.52368 27.4087L7.52403 27.4089ZM17.3282 31.586H8.00733V28.0648C9.45724 28.5827 11.0107 28.9277 12.6678 28.9277C14.3248 28.9277 15.9129 28.5824 17.3282 28.0648V31.586Z" stroke="#5A5A5A" stroke-width="0.94" stroke-miterlimit="10" stroke-linecap="round" stroke-linejoin="round"/>
</svg>
