<svg width="24" height="24" viewBox="0 0 24 24" fill="none" xmlns="http://www.w3.org/2000/svg">
<path d="M12 21.1663C6.9375 21.1663 2.8335 17.0624 2.8335 11.9999C2.8335 6.93744 6.9375 2.83344 12 2.83344C17.0627 2.83344 21.1665 6.93744 21.1665 11.9999C21.1665 12.3703 21.4671 12.6706 21.8372 12.6706C22.2073 12.6706 22.5077 12.3701 22.5077 11.9999C22.5077 6.19682 17.8031 1.49207 12 1.49207C6.19687 1.49207 1.49231 6.19682 1.49231 11.9999C1.49231 17.8031 6.19687 22.5078 12 22.5078C12.3703 22.5078 12.6707 22.2073 12.6707 21.8371C12.6707 21.467 12.3703 21.1663 12 21.1663Z" fill="#F15B27"/>
<path d="M11.3293 4.84568V12.2232H7.52828C7.15835 12.2232 6.85797 12.5238 6.85797 12.8939C6.85797 13.2646 7.15853 13.565 7.52828 13.565H12C12.3703 13.565 12.6707 13.2644 12.6707 12.8939V4.84568C12.6707 4.47518 12.3701 4.1748 12 4.1748C11.6298 4.1748 11.3293 4.47537 11.3293 4.84568Z" fill="#F15B27"/>
<path d="M17.3657 12.2233C14.5256 12.2233 12.2235 14.5254 12.2235 17.3655C12.2235 20.2057 14.5254 22.5078 17.3657 22.5078C20.2056 22.5078 22.5077 20.2059 22.5077 17.3655C22.5077 14.5254 20.2058 12.2233 17.3657 12.2233ZM17.4279 19.6556C17.2046 19.9513 16.7835 20.0098 16.4882 19.7865L14.4373 18.236C14.1424 18.0131 14.0837 17.5921 14.3074 17.2965C14.5305 17.0011 14.9516 16.9426 15.2466 17.1656L16.7625 18.3116L18.8996 15.4843C19.1229 15.1888 19.5439 15.1303 19.8392 15.3536C20.1345 15.5769 20.1932 15.9978 19.9697 16.2933L17.4279 19.6556Z" fill="#F15B27"/>
</svg>
