<svg width="24" height="24" viewBox="0 0 24 24" fill="none" xmlns="http://www.w3.org/2000/svg">
<g clip-path="url(#clip0_1_831)">
<path d="M23.5097 8.28179L22.5481 6.60352C22.2918 6.15624 21.7224 5.99963 21.2734 6.25341C21.1317 6.33343 20.9771 6.37402 20.8136 6.37402C20.2966 6.37402 19.8761 5.95346 19.8761 5.43648C19.8761 5.10451 20.0549 4.79391 20.3428 4.62601C20.7875 4.36651 20.9398 3.79684 20.6837 3.35007L19.834 1.86709C19.3413 1.0073 18.5433 0.390804 17.587 0.131257C16.6308 -0.128336 15.6307 0.000148043 14.771 0.493039L1.86511 7.89254C0.717281 8.55062 0.002625 9.78226 0 11.1086V14.6713C0 15.1891 0.419719 15.6088 0.937547 15.6088C1.45453 15.6088 1.87509 16.0294 1.87509 16.5464C1.87509 17.0634 1.45453 17.4839 0.937547 17.4839C0.419719 17.4839 0 17.9037 0 18.4215V20.2497C0 22.3175 1.68234 23.9999 3.75019 23.9999H18.8447C20.9125 23.9999 22.5949 22.3175 22.5949 20.2497V18.4215C22.5949 17.9036 22.1752 17.4839 21.6573 17.4839C21.1403 17.4839 20.7198 17.0634 20.7198 16.5464C20.7198 16.0294 21.1403 15.6088 21.6573 15.6088C22.1752 15.6088 22.5949 15.1891 22.5949 14.6713V13.0348C24.0097 11.9151 24.4333 9.89363 23.5097 8.28179ZM22.0152 10.7501C21.3501 9.69905 20.178 8.99912 18.8447 8.99912H16.5148C16.6762 8.71946 16.6894 8.36424 16.5173 8.06396C16.2598 7.61476 15.6868 7.45927 15.2376 7.7168C14.7884 7.97434 14.6329 8.54719 14.8905 8.9964C14.891 8.99734 14.8916 8.99818 14.8922 8.99912H9.89114C9.37331 8.99912 8.95359 9.41883 8.95359 9.93666C8.95359 10.4545 9.37331 10.8742 9.89114 10.8742H18.8447C19.8787 10.8742 20.7198 11.7154 20.7198 12.7493V13.8944C19.6285 14.2813 18.8447 15.3241 18.8447 16.5464C18.8447 17.7687 19.6285 18.8114 20.7198 19.1984V20.2497C20.7198 21.2836 19.8787 22.1248 18.8447 22.1248H3.75019C2.71627 22.1248 1.87509 21.2836 1.87509 20.2497V19.1984C2.96644 18.8114 3.75019 17.7687 3.75019 16.5464C3.75019 15.3241 2.96644 14.2814 1.87509 13.8944V12.7493C1.87509 11.7154 2.71627 10.8742 3.75019 10.8742H5.20341C5.72123 10.8742 6.14095 10.4545 6.14095 9.93666C6.14095 9.41883 5.72123 8.99912 5.20341 8.99912H3.75019C3.7343 8.99912 3.71864 9.00015 3.7028 9.00033L15.7036 2.11969C16.1287 1.87604 16.6231 1.81243 17.0959 1.94082C17.5688 2.06921 17.9634 2.37404 18.207 2.79929L18.6736 3.61351C18.2468 4.11582 18.0009 4.76115 18.0009 5.43643C18.0009 6.98733 19.2626 8.24907 20.8135 8.24907C20.9787 8.24907 21.1432 8.2344 21.3049 8.20566L21.8827 9.21394C22.161 9.6998 22.1917 10.2606 22.0152 10.7501Z" fill="#F15B27"/>
<path d="M15.5633 14.1556C16.0811 14.1556 16.5008 13.7359 16.5008 13.2181C16.5008 12.7003 16.0811 12.2805 15.5633 12.2805C15.0455 12.2805 14.6257 12.7003 14.6257 13.2181C14.6257 13.7359 15.0455 14.1556 15.5633 14.1556Z" fill="#F15B27"/>
<path d="M15.5633 17.437C16.0811 17.437 16.5008 17.0172 16.5008 16.4994C16.5008 15.9816 16.0811 15.5619 15.5633 15.5619C15.0455 15.5619 14.6257 15.9816 14.6257 16.4994C14.6257 17.0172 15.0455 17.437 15.5633 17.437Z" fill="#F15B27"/>
<path d="M15.5633 20.7185C16.0811 20.7185 16.5008 20.2987 16.5008 19.7809C16.5008 19.2631 16.0811 18.8434 15.5633 18.8434C15.0455 18.8434 14.6257 19.2631 14.6257 19.7809C14.6257 20.2987 15.0455 20.7185 15.5633 20.7185Z" fill="#F15B27"/>
<path d="M14.063 6.60825C14.5808 6.60825 15.0006 6.18849 15.0006 5.6707C15.0006 5.15291 14.5808 4.73315 14.063 4.73315C13.5452 4.73315 13.1255 5.15291 13.1255 5.6707C13.1255 6.18849 13.5452 6.60825 14.063 6.60825Z" fill="#F15B27"/>
</g>
<defs>
<clipPath id="clip0_1_831">
<rect width="24" height="24" fill="white"/>
</clipPath>
</defs>
</svg>
