<svg width="840" height="595" viewBox="0 0 840 595" fill="none" xmlns="http://www.w3.org/2000/svg">
<g clip-path="url(#clip0_1_99)">
<mask id="mask0_1_99" style="mask-type:luminance" maskUnits="userSpaceOnUse" x="0" y="0" width="840" height="595">
<path d="M0 0H840V595H0V0Z" fill="white"/>
</mask>
<g mask="url(#mask0_1_99)">
<path d="M119.926 510.644C118.936 507.307 116.985 504.593 114.067 502.501C111.152 500.412 107.769 499.367 103.922 499.367C99.7402 499.367 96.0724 500.541 92.9175 502.887C90.938 504.355 89.1041 506.941 87.4179 510.644H119.926ZM134.917 522.474H86.7594C87.4558 526.726 89.3146 530.108 92.3328 532.62C95.353 535.132 99.2044 536.389 103.893 536.389C109.495 536.389 114.306 534.426 118.334 530.503L130.964 536.444C127.815 540.918 124.044 544.227 119.652 546.373C115.259 548.519 110.043 549.59 104.002 549.59C94.6317 549.59 86.9958 546.632 81.1031 540.706C75.2074 534.783 72.261 527.369 72.261 518.454C72.261 509.324 75.1994 501.742 81.0752 495.709C86.9509 489.677 94.3184 486.657 103.177 486.657C112.587 486.657 120.237 489.677 126.133 495.709C132.026 501.742 134.972 509.71 134.972 519.611L134.917 522.474Z" fill="#F15B27"/>
<path d="M175.389 500.521C170.755 500.521 166.903 502.164 163.84 505.447C160.777 508.727 159.245 512.936 159.245 518.071C159.245 523.24 160.803 527.494 163.92 530.832C167.041 534.169 170.882 535.838 175.443 535.838C180.149 535.838 184.055 534.198 187.155 530.915C190.256 527.631 191.807 523.331 191.807 518.017C191.807 512.81 190.256 508.59 187.155 505.362C184.055 502.135 180.132 500.521 175.389 500.521ZM191.148 488.2H206.14V548.054H191.148V541.724C188.221 544.513 185.29 546.521 182.344 547.748C179.399 548.976 176.21 549.59 172.774 549.59C165.058 549.59 158.383 546.593 152.75 540.595C147.123 534.604 144.308 527.145 144.308 518.237C144.308 508.993 147.035 501.421 152.48 495.515C157.93 489.611 164.545 486.657 172.337 486.657C175.92 486.657 179.282 487.34 182.428 488.695C185.569 490.052 188.479 492.089 191.148 494.801V488.2Z" fill="#F15B27"/>
<path d="M257.866 496.562L248.588 505.859C244.816 502.116 241.394 500.248 238.316 500.248C236.637 500.248 235.319 500.605 234.366 501.319C233.413 502.033 232.937 502.925 232.937 503.991C232.937 504.797 233.24 505.539 233.844 506.217C234.446 506.894 235.94 507.819 238.316 508.994L243.81 511.742C249.595 514.603 253.565 517.521 255.727 520.492C257.886 523.461 258.967 526.946 258.967 530.941C258.967 536.262 257.016 540.699 253.117 544.254C249.218 547.814 243.992 549.592 237.441 549.592C228.725 549.592 221.77 546.179 216.571 539.361L225.798 529.292C227.555 531.347 229.615 533.007 231.976 534.27C234.338 535.539 236.431 536.167 238.265 536.167C240.239 536.167 241.833 535.69 243.042 534.739C244.25 533.784 244.854 532.688 244.854 531.438C244.854 529.127 242.675 526.869 238.316 524.672L233.265 522.14C223.601 517.263 218.77 511.157 218.77 503.822C218.77 499.093 220.592 495.05 224.235 491.693C227.875 488.338 232.532 486.658 238.208 486.658C242.091 486.658 245.741 487.512 249.164 489.218C252.587 490.921 255.487 493.373 257.866 496.562Z" fill="#F15B27"/>
<path d="M264.144 488.199H279.464L294.983 525.756L312.105 488.199H327.471L290.052 569.945H274.57L286.854 543.585L264.144 488.199Z" fill="#F15B27"/>
<path d="M398.115 500.521C393.392 500.521 389.473 502.135 386.364 505.362C383.252 508.59 381.694 512.81 381.694 518.017C381.694 523.331 383.252 527.631 386.364 530.915C389.473 534.198 393.392 535.838 398.115 535.838C402.69 535.838 406.543 534.169 409.672 530.832C412.801 527.494 414.368 523.24 414.368 518.071C414.368 512.936 412.83 508.727 409.758 505.447C406.681 502.164 402.802 500.521 398.115 500.521ZM382.357 488.2V494.801C385.064 492.089 387.99 490.052 391.141 488.695C394.29 487.34 397.659 486.657 401.244 486.657C409.043 486.657 415.668 489.611 421.118 495.515C426.578 501.421 429.308 508.993 429.308 518.237C429.308 527.145 426.484 534.604 420.851 540.595C415.212 546.593 408.526 549.59 400.802 549.59C397.362 549.59 394.159 548.976 391.196 547.748C388.229 546.521 385.283 544.513 382.357 541.724V569.946H367.473V488.2H382.357Z" fill="#929597"/>
<path d="M470.052 500.521C465.417 500.521 461.566 502.164 458.503 505.447C455.44 508.727 453.908 512.936 453.908 518.071C453.908 523.24 455.466 527.494 458.583 530.832C461.704 534.169 465.542 535.838 470.106 535.838C474.812 535.838 478.718 534.198 481.818 530.915C484.919 527.631 486.47 523.331 486.47 518.017C486.47 512.81 484.919 508.59 481.818 505.362C478.718 502.135 474.792 500.521 470.052 500.521ZM485.811 488.2H500.8V548.054H485.811V541.724C482.884 544.513 479.953 546.521 477.006 547.748C474.062 548.976 470.873 549.59 467.437 549.59C459.721 549.59 453.046 546.593 447.413 540.595C441.786 534.604 438.971 527.145 438.971 518.237C438.971 508.993 441.695 501.421 447.143 495.515C452.59 489.611 459.207 486.657 466.997 486.657C470.583 486.657 473.942 487.34 477.088 488.695C480.232 490.052 483.142 492.089 485.811 494.801V488.2Z" fill="#929597"/>
<path d="M512.444 488.199H525.293V495.736C526.683 492.768 528.536 490.511 530.838 488.97C533.145 487.43 535.672 486.658 538.416 486.658C540.356 486.658 542.39 487.176 544.511 488.199L539.843 501.126C538.086 500.248 536.639 499.805 535.507 499.805C533.2 499.805 531.251 501.237 529.66 504.097C528.068 506.957 527.27 512.569 527.27 520.929L527.327 523.847V548.052H512.444V488.199Z" fill="#929597"/>
<path d="M552.036 465.097H567.027V512.878L589.101 488.199H607.929L582.19 516.887L611.007 548.052H592.396L567.027 520.467V548.052H552.036V465.097Z" fill="#929597"/>
<path d="M615.512 488.199H630.503V548.052H615.512V488.199ZM623.008 463.554C625.638 463.554 627.891 464.508 629.771 466.417C631.651 468.323 632.589 470.631 632.589 473.346C632.589 476.024 631.66 478.307 629.797 480.196C627.94 482.084 625.709 483.027 623.117 483.027C620.456 483.027 618.182 482.064 616.302 480.141C614.42 478.215 613.482 475.875 613.482 473.129C613.482 470.486 614.412 468.231 616.274 466.36C618.134 464.491 620.378 463.554 623.008 463.554Z" fill="#929597"/>
<path d="M644.125 488.199H659.116V494.331C662.514 491.464 665.594 489.464 668.355 488.345C671.113 487.221 673.937 486.658 676.826 486.658C682.748 486.658 687.777 488.733 691.906 492.876C695.381 496.397 697.115 501.602 697.115 508.497V548.052H682.288V521.841C682.288 514.698 681.969 509.954 681.33 507.612C680.689 505.266 679.579 503.482 677.988 502.254C676.398 501.026 674.436 500.411 672.1 500.411C669.068 500.411 666.464 501.428 664.291 503.462C662.121 505.498 660.611 508.306 659.773 511.898C659.334 513.764 659.116 517.813 659.116 524.039V548.052H644.125V488.199Z" fill="#929597"/>
<path d="M740.22 500.688C735.499 500.688 731.603 502.274 728.525 505.446C725.448 508.617 723.913 512.607 723.913 517.412C723.913 522.398 725.485 526.487 728.634 529.679C731.783 532.871 735.739 534.462 740.496 534.462C745.146 534.462 748.979 532.905 752.002 529.787C755.02 526.673 756.532 522.581 756.532 517.521C756.532 512.535 755.011 508.481 751.974 505.363C748.936 502.245 745.017 500.688 740.22 500.688ZM755.762 488.199H770.699V539.468C770.699 549.589 768.666 557.036 764.604 561.804C759.15 568.256 750.93 571.485 739.946 571.485C734.091 571.485 729.165 570.753 725.177 569.285C721.184 567.819 717.818 565.662 715.074 562.821C712.328 559.978 710.296 556.524 708.976 552.452H725.508C726.968 554.138 728.856 555.412 731.161 556.275C733.468 557.136 736.195 557.566 739.342 557.566C743.369 557.566 746.608 556.941 749.065 555.698C751.514 554.449 753.243 552.838 754.253 550.858C755.257 548.875 755.762 545.466 755.762 540.625C753.127 543.263 750.363 545.16 747.47 546.32C744.575 547.472 741.3 548.052 737.642 548.052C729.624 548.052 722.849 545.157 717.324 539.36C711.794 533.565 709.03 526.23 709.03 517.355C709.03 507.857 711.962 500.228 717.818 494.47C723.126 489.265 729.461 486.659 736.817 486.659C740.26 486.659 743.505 487.292 746.566 488.559C749.621 489.821 752.687 491.904 755.762 494.799V488.199Z" fill="#929597"/>
<path d="M181.122 232.288L179.003 225.722C175.92 216.166 174.35 206.191 174.348 196.077C174.339 170.383 184.311 146.235 202.434 128.086C220.56 109.924 244.665 99.9211 270.304 99.9211C280.388 99.9351 290.313 101.509 299.897 104.616L306.449 106.736L181.122 232.288ZM365.804 200.277C364.798 224.615 355.072 247.138 338.175 264.068C312.564 289.721 275.216 298.714 240.709 287.541L234.158 285.418L414.789 104.464C408.058 93.812 400.134 83.8966 391.207 74.9538C381.503 65.2294 370.648 56.6974 358.951 49.5948C332.339 33.4304 301.711 24.8834 270.387 24.8664C224.573 24.8664 181.638 42.654 149.396 74.9538C117.168 107.239 99.4208 150.253 99.4268 196.077C99.4298 227.525 107.956 258.233 124.079 284.883C131.172 296.602 139.692 307.479 149.396 317.2C159.099 326.92 169.952 335.453 181.656 342.559C249.192 383.571 335.365 373.141 391.21 317.2C391.869 316.543 392.484 315.854 393.129 315.186V200.277H365.804Z" fill="#929597"/>
<path d="M572.542 290.18C518.719 290.18 476.56 248.838 476.56 196.059C476.58 142.695 519.641 99.28 572.542 99.28C625.469 99.28 668.524 142.704 668.524 196.076C668.524 248.846 626.365 290.18 572.542 290.18ZM572.542 24.7861C479.692 24.7861 403.933 99.349 401.662 191.838C401.628 193.248 401.553 194.642 401.553 196.059V200.276V305.833V312.282V318.548V472.177C443.285 469.977 476.56 435.271 476.56 392.925V335.921L482.949 339.796C509.82 356.074 540.799 364.68 572.542 364.68C666.827 364.68 743.534 289.044 743.534 196.076C743.534 101.626 666.827 24.7861 572.542 24.7861Z" fill="#F15B27"/>
<path d="M590.309 332.593C587.147 333.019 583.84 333.342 580.495 333.522C579.822 333.556 579.18 333.877 578.752 334.374C578.293 334.876 578.076 335.514 578.113 336.197C578.185 337.511 579.285 338.583 580.637 338.583H580.783C584.122 338.366 587.574 338.08 590.988 337.619C592.197 337.474 593.159 336.408 593.159 335.159C593.193 335.053 593.159 334.908 593.159 334.908C592.979 333.414 591.701 332.45 590.309 332.593Z" fill="#F8F8F8"/>
<path d="M560.688 333.236C557.451 332.95 554.139 332.557 550.867 332.022C549.519 331.808 548.201 332.736 547.99 334.128C547.879 334.768 548.024 335.442 548.415 335.976C548.806 336.551 549.411 336.905 550.086 337.013C553.392 337.548 556.846 337.977 560.26 338.257H560.472C561.787 338.257 562.854 337.296 562.996 335.976V335.693C562.996 334.414 562 333.342 560.688 333.236Z" fill="#F8F8F8"/>
<path d="M619.728 325.467L619.871 325.324L619.123 325.575C615.991 326.716 612.825 327.75 609.696 328.639C609.058 328.819 608.521 329.244 608.168 329.816C607.849 330.422 607.774 331.096 607.956 331.739C608.276 332.845 609.268 333.59 610.375 333.59C610.623 333.59 610.837 333.556 611.048 333.481C614.357 332.556 617.663 331.49 620.828 330.35C621.824 329.959 622.504 329.03 622.504 327.961C622.504 327.676 622.429 327.392 622.321 327.104C621.933 326.038 620.794 325.324 619.728 325.467Z" fill="#F8F8F8"/>
<path d="M531.626 327.464C528.568 326.499 525.439 325.364 522.31 324.113C521.027 323.615 519.536 324.293 519.037 325.538C518.506 326.818 519.145 328.316 520.423 328.819C523.697 330.099 526.934 331.273 530.098 332.273C530.348 332.345 530.634 332.382 530.879 332.382C531.983 332.382 532.942 331.667 533.264 330.633C533.335 330.382 533.373 330.136 533.373 329.887C533.403 328.782 532.696 327.784 531.626 327.464Z" fill="#F8F8F8"/>
<path d="M645.655 312.463L645.479 312.569C642.772 314.314 639.968 315.955 637.118 317.489C635.909 318.164 635.45 319.693 636.126 320.909C636.548 321.727 637.404 322.224 638.325 322.224C638.756 322.224 639.146 322.121 639.537 321.941C642.526 320.299 645.513 318.558 648.356 316.738C649.106 316.237 649.565 315.421 649.531 314.532C649.531 314.063 649.389 313.641 649.137 313.246C648.431 312.106 646.794 311.752 645.655 312.463Z" fill="#F8F8F8"/>
<path d="M504.493 315.458L504.276 315.349C501.537 313.743 498.799 312 496.132 310.18C495.029 309.431 493.395 309.754 492.647 310.857C492.253 311.431 492.114 312.106 492.253 312.749C492.362 313.424 492.753 313.994 493.289 314.349C496.132 316.312 499.048 318.126 501.999 319.837C502.356 320.052 502.818 320.195 503.246 320.195C504.136 320.195 504.987 319.693 505.414 318.912C505.665 318.518 505.771 318.055 505.771 317.592C505.736 316.701 505.271 315.917 504.493 315.458Z" fill="#F8F8F8"/>
<path d="M672.33 293.899C671.369 292.936 669.732 292.936 668.773 293.899C666.497 296.18 664.044 298.425 661.517 300.633C660.451 301.559 660.345 303.128 661.266 304.194C661.728 304.769 662.441 305.088 663.152 305.088C663.756 305.088 664.361 304.876 664.823 304.483C667.39 302.237 669.874 299.919 672.221 297.568L672.33 297.462L672.652 297.139H672.581C672.898 296.716 673.077 296.214 673.077 295.682C673.077 295.004 672.826 294.398 672.33 293.899Z" fill="#F8F8F8"/>
<path d="M687.338 270.74L687.304 270.811C685.561 273.589 683.639 276.298 681.716 278.901C680.867 280.004 681.114 281.607 682.219 282.464C682.681 282.784 683.177 282.961 683.747 282.961C684.529 282.961 685.273 282.57 685.775 281.927C687.84 279.147 689.794 276.298 691.608 273.483C691.856 273.089 691.962 272.629 691.999 272.164C691.999 271.272 691.571 270.488 690.826 269.995C689.686 269.246 688.086 269.635 687.338 270.74Z" fill="#F8F8F8"/>
<path d="M703.736 242.627C702.455 242.164 700.96 242.878 700.498 244.121C699.361 247.224 698.114 250.324 696.765 253.316C696.479 253.921 696.479 254.636 696.691 255.242C696.942 255.884 697.404 256.382 698.009 256.668C698.365 256.808 698.687 256.879 699.076 256.879C700.036 256.879 700.96 256.307 701.354 255.382C702.775 252.213 704.089 249.005 705.228 245.87C705.34 245.584 705.37 245.298 705.37 244.979C705.37 243.944 704.695 242.986 703.736 242.627Z" fill="#F8F8F8"/>
<path d="M710.348 213.127C708.927 212.947 707.684 213.945 707.504 215.299C707.116 218.541 706.545 221.819 705.87 225.062C705.724 225.739 705.87 226.417 706.263 226.95C706.617 227.522 707.185 227.911 707.86 228.054C708.04 228.088 708.183 228.088 708.36 228.088C709.532 228.088 710.564 227.236 710.813 226.094C711.488 222.816 712.059 219.399 712.521 215.942C712.521 215.942 712.556 215.693 712.556 215.548C712.521 214.338 711.56 213.27 710.348 213.127Z" fill="#F8F8F8"/>
<path d="M434.603 184.871C434.061 184.832 433.58 184.996 433.155 185.243C433.053 185.283 432.97 185.349 432.874 185.402C432.829 185.437 432.777 185.459 432.736 185.496C432.036 185.948 431.543 186.698 431.543 187.588V197.707C431.543 199.095 432.684 200.235 434.068 200.235C435.453 200.235 436.557 199.095 436.557 197.707V197.449V197.272C436.557 194.137 436.7 190.86 436.914 187.542C437.019 186.191 435.989 184.945 434.603 184.871Z" fill="#F8F8F8"/>
<path d="M713.197 185.191C713.057 183.802 711.848 182.768 710.456 182.876C709.178 182.985 708.182 184.053 708.148 185.37C708.148 185.37 708.148 185.513 708.182 185.619C708.431 188.862 708.607 192.174 708.676 195.526C708.676 196.877 709.817 198.021 711.204 198.021C712.592 197.983 713.728 196.843 713.693 195.454C713.662 191.997 713.482 188.542 713.197 185.191Z" fill="#F8F8F8"/>
<path d="M440.542 155.228C439.258 154.833 437.804 155.617 437.41 156.902C436.414 160.249 435.562 163.566 434.848 166.878C434.814 167.021 434.78 167.198 434.78 167.375C434.78 168.552 435.596 169.624 436.771 169.869C436.948 169.904 437.127 169.943 437.304 169.943C438.479 169.943 439.509 169.087 439.757 167.946C440.471 164.741 441.323 161.534 442.248 158.363C442.641 157.045 441.891 155.617 440.542 155.228Z" fill="#F8F8F8"/>
<path d="M702.456 156.617C703.451 159.752 704.304 162.923 705.054 166.061C705.299 167.198 706.329 167.981 707.504 167.981C707.684 167.981 707.897 167.981 708.075 167.947C709.424 167.592 710.279 166.238 709.963 164.883C709.179 161.569 708.252 158.258 707.222 154.977C706.831 153.66 705.371 152.946 704.056 153.34C702.989 153.66 702.313 154.62 702.313 155.76C702.313 156.012 702.347 156.263 702.419 156.508L702.456 156.617Z" fill="#F8F8F8"/>
<path d="M452.846 127.578C451.674 126.903 450.071 127.366 449.398 128.54C447.761 131.498 446.194 134.562 444.738 137.696C444.56 138.053 444.489 138.408 444.489 138.802C444.489 139.762 445.06 140.654 445.947 141.048C446.266 141.224 446.622 141.296 447.014 141.296C447.761 141.296 448.474 140.939 448.936 140.368V140.585L449.289 139.836C450.713 136.805 452.242 133.813 453.807 130.998C454.484 129.787 454.056 128.256 452.846 127.578Z" fill="#F8F8F8"/>
<path d="M698.471 139.264C699.076 138.978 699.541 138.447 699.786 137.839C700 137.198 699.966 136.484 699.643 135.878C698.186 132.818 696.548 129.753 694.846 126.829C694.204 125.655 692.566 125.226 691.397 125.904C690.648 126.332 690.183 127.149 690.148 128.038C690.148 128.506 690.256 128.932 690.505 129.358L690.752 129.787C692.319 132.532 693.779 135.307 695.128 138.09C695.556 138.944 696.409 139.516 697.404 139.516C697.761 139.516 698.152 139.441 698.471 139.264Z" fill="#F8F8F8"/>
<path d="M467.253 103.456C464.941 106.093 462.736 108.728 460.707 111.4C460.351 111.829 460.174 112.328 460.174 112.897C460.174 113.683 460.528 114.431 461.169 114.928C461.594 115.289 462.131 115.466 462.699 115.466C463.446 115.466 464.155 115.106 464.62 114.534L464.692 114.465C466.686 111.902 468.782 109.334 470.987 106.843C471.449 106.308 471.663 105.665 471.626 104.988C471.592 104.313 471.306 103.707 470.807 103.279C469.812 102.388 468.14 102.459 467.253 103.456Z" fill="#F8F8F8"/>
<path d="M682.926 113.362C683.996 112.508 684.209 110.94 683.357 109.833C681.258 107.199 679.053 104.599 676.777 102.139C676.742 102.065 676.702 102.03 676.668 101.996L676.383 101.676V101.71C675.425 100.998 674.001 101.036 673.114 101.853C672.615 102.316 672.296 102.993 672.296 103.707C672.296 104.313 672.54 104.919 672.934 105.347L672.968 105.416C675.173 107.839 677.31 110.368 679.372 112.971C679.871 113.574 680.584 113.931 681.362 113.931C681.933 113.931 682.467 113.717 682.926 113.362Z" fill="#F8F8F8"/>
<path d="M493.569 83.3948C492.752 82.3283 491.116 82.0435 490.051 82.8261C487.311 84.8232 484.61 86.9602 481.94 89.1691C481.372 89.6349 481.053 90.3466 481.053 91.1292C481.053 91.7009 481.264 92.2667 481.657 92.7354C482.119 93.3012 482.83 93.624 483.577 93.624C484.182 93.624 484.752 93.4071 485.214 93.0183C487.599 90.9863 490.228 88.9552 493.001 86.9232C494.104 86.1066 494.39 84.5373 493.569 83.3948Z" fill="#F8F8F8"/>
<path d="M662.692 89.5948C662.618 88.9201 662.301 88.3144 661.768 87.8856C659.101 85.7146 656.36 83.6456 653.584 81.6855C652.484 80.9029 650.849 81.2228 650.067 82.2943C649.783 82.7201 649.64 83.2168 649.602 83.7176C649.602 84.5372 649.993 85.3578 650.672 85.8206L650.741 85.8546C653.374 87.7087 656.006 89.7038 658.602 91.8038C659.027 92.1986 659.597 92.3745 660.168 92.3745C660.949 92.3745 661.659 92.0547 662.121 91.4489C662.552 90.9122 662.763 90.2715 662.692 89.5948Z" fill="#F8F8F8"/>
<path d="M520.066 70.8904C520.318 70.2478 520.318 69.5731 520.035 68.9674C519.498 67.7189 517.97 67.0792 516.726 67.647C513.632 69.0013 510.503 70.4626 507.476 72.0679C506.66 72.4967 506.127 73.3133 506.127 74.2389C506.127 74.6677 506.198 75.0965 506.41 75.4503C506.837 76.3079 507.693 76.8057 508.654 76.8057C509.042 76.8057 509.433 76.7337 509.826 76.5198C512.705 75.0255 515.694 73.5962 518.754 72.2788C519.356 71.9959 519.821 71.4962 520.066 70.8904Z" fill="#F8F8F8"/>
<path d="M637.118 74.5257C637.72 73.2763 637.227 71.782 635.983 71.1393C632.991 69.642 629.862 68.1847 626.665 66.8653C625.381 66.3306 623.889 66.9703 623.353 68.2197C623.211 68.5395 623.177 68.8624 623.177 69.2162C623.177 70.2137 623.781 71.1393 624.708 71.5341C627.762 72.7795 630.79 74.1689 633.741 75.6652C634.095 75.8431 634.451 75.9141 634.846 75.9141C635.803 75.9141 636.653 75.3793 637.118 74.5257Z" fill="#F8F8F8"/>
<path d="M546.102 58.5986C542.725 59.2383 539.348 60.0239 536.107 60.8785C535.007 61.1994 534.223 62.1989 534.223 63.3733C534.223 63.5882 534.26 63.7991 534.33 63.9791C534.616 65.0845 535.612 65.8682 536.749 65.8682C536.96 65.8682 537.211 65.8302 537.389 65.7622C540.625 64.9046 543.863 64.193 547.063 63.5882C548.415 63.3014 549.305 61.985 549.057 60.6306C548.806 59.2753 547.454 58.3497 546.102 58.5986Z" fill="#F8F8F8"/>
<path d="M608.983 63.4446C609.166 62.8019 609.057 62.1272 608.735 61.5565C608.379 60.9498 607.814 60.5589 607.172 60.379C603.864 59.5614 600.486 58.8497 597.144 58.244C595.789 58.0301 594.44 58.9557 594.225 60.3071C594.191 60.416 594.191 60.5589 594.191 60.5589C594.152 61.9503 595.045 63.0158 596.254 63.2307C599.451 63.7644 602.725 64.4791 605.928 65.2957C606.14 65.3337 606.353 65.3677 606.568 65.3677C607.705 65.3677 608.704 64.585 608.983 63.4446Z" fill="#F8F8F8"/>
<path d="M579.18 58.7753C579.217 57.387 578.113 56.2095 576.727 56.1755C572.885 56.0696 569.79 56.1036 566.484 56.2465C565.132 56.3185 564.063 57.424 564.063 58.7413V58.8843C564.137 60.2356 565.235 61.3071 566.59 61.3071H566.695C569.827 61.1642 572.851 61.1272 576.585 61.2362H576.652C578.044 61.2362 579.143 60.1297 579.18 58.7753Z" fill="#F8F8F8"/>
<path d="M434.067 427.487C432.684 427.487 431.543 428.587 431.543 430.015V440.099C431.543 441.485 432.684 442.627 434.067 442.627C435.453 442.627 436.557 441.485 436.557 440.099V430.015C436.557 428.587 435.453 427.487 434.067 427.487Z" fill="#F8F8F8"/>
<path d="M434.067 397.164C432.684 397.164 431.543 398.302 431.543 399.693V409.776C431.543 411.203 432.684 412.305 434.067 412.305C435.453 412.305 436.557 411.203 436.557 409.776V399.693C436.557 398.302 435.453 397.164 434.067 397.164Z" fill="#F8F8F8"/>
<path d="M434.067 366.879C432.684 366.879 431.543 368.017 431.543 369.411V379.491C431.543 380.879 432.684 382.023 434.067 382.023C435.453 382.023 436.557 380.879 436.557 379.491V369.411C436.557 368.017 435.453 366.879 434.067 366.879Z" fill="#F8F8F8"/>
<path d="M434.067 336.553C432.684 336.553 431.543 337.696 431.543 339.082V349.207C431.543 350.595 432.684 351.735 434.067 351.735C435.453 351.735 436.557 350.595 436.557 349.207V339.082C436.557 337.696 435.453 336.553 434.067 336.553Z" fill="#F8F8F8"/>
<path d="M434.067 306.269C432.684 306.269 431.543 307.409 431.543 308.801V318.884C431.543 320.272 432.684 321.413 434.067 321.413C435.453 321.413 436.557 320.272 436.557 318.884V308.801C436.557 307.409 435.453 306.269 434.067 306.269Z" fill="#F8F8F8"/>
<path d="M434.067 275.984C432.684 275.984 431.543 277.089 431.543 278.515V288.596C431.543 289.991 432.684 291.127 434.067 291.127C435.453 291.127 436.557 289.991 436.557 288.596V278.515C436.557 277.089 435.453 275.984 434.067 275.984Z" fill="#F8F8F8"/>
<path d="M434.067 245.664C432.684 245.664 431.543 246.804 431.543 248.193V258.31C431.543 259.703 432.684 260.805 434.067 260.805C435.453 260.805 436.557 259.703 436.557 258.31V248.193C436.557 246.804 435.453 245.664 434.067 245.664Z" fill="#F8F8F8"/>
<path d="M434.067 215.376C432.684 215.376 431.543 216.519 431.543 217.908V227.991C431.543 229.381 432.684 230.52 434.067 230.52C435.453 230.52 436.557 229.381 436.557 227.991V217.908C436.557 216.519 435.453 215.376 434.067 215.376Z" fill="#F8F8F8"/>
<path d="M225.1 320.131C222.02 319.117 218.896 317.914 215.853 316.62C215.651 316.554 215.442 316.483 215.232 316.454C214.108 316.279 213.001 316.906 212.554 317.988C212.276 318.597 212.279 319.28 212.511 319.894C212.773 320.546 213.272 321.017 213.883 321.294C217.026 322.606 220.257 323.82 223.469 324.929C224.775 325.343 226.253 324.634 226.666 323.329C226.718 323.226 226.741 323.086 226.752 322.98C226.986 321.717 226.267 320.526 225.1 320.131Z" fill="#F8F8F8"/>
<path d="M155.65 266.793C153.836 264.064 152.105 261.239 150.465 258.355C150.063 257.678 149.412 257.221 148.639 257.104C148.074 257.016 147.518 257.144 147.007 257.424C145.821 258.109 145.376 259.627 146.052 260.85C147.727 263.772 149.515 266.679 151.392 269.453C151.414 269.533 151.448 269.571 151.477 269.614L151.711 269.974L151.717 269.937C152.555 270.788 153.97 270.965 154.968 270.293C155.533 269.911 155.949 269.288 156.058 268.582C156.149 267.984 155.998 267.351 155.673 266.868L155.65 266.793Z" fill="#F8F8F8"/>
<path d="M149.409 125.508C151.004 122.617 152.701 119.742 154.489 116.987C154.863 116.433 154.971 115.727 154.851 115.096C154.703 114.424 154.321 113.862 153.767 113.487C153.434 113.293 153.132 113.176 152.747 113.116C151.794 112.97 150.795 113.393 150.267 114.251C148.386 117.167 146.597 120.139 144.997 123.065C144.849 123.33 144.769 123.605 144.723 123.922C144.566 124.946 145.091 125.997 145.984 126.497C147.181 127.148 148.765 126.671 149.409 125.508Z" fill="#F8F8F8"/>
<path d="M213.954 66.2784L214.142 66.2014C217.083 64.887 220.103 63.6926 223.152 62.6061C224.45 62.1233 225.137 60.681 224.65 59.3746C224.356 58.503 223.586 57.8833 222.673 57.7434C222.251 57.6774 221.849 57.7204 221.433 57.8374C218.232 59.0058 215.014 60.2772 211.928 61.6436C211.116 62.0234 210.533 62.761 210.434 63.6466C210.363 64.1064 210.443 64.5492 210.628 64.975C211.156 66.2124 212.718 66.8091 213.954 66.2784Z" fill="#F8F8F8"/>
<path d="M198.232 307.607C195.399 305.91 192.621 304.081 189.926 302.153C189.603 301.921 189.264 301.798 188.876 301.738C187.929 301.593 187.005 301.993 186.417 302.767C185.63 303.907 185.896 305.461 187.031 306.284C189.761 308.219 192.629 310.136 195.597 311.924C196.78 312.648 198.352 312.239 199.07 311.091C199.262 310.793 199.341 310.482 199.398 310.13C199.547 309.142 199.09 308.139 198.232 307.607Z" fill="#F8F8F8"/>
<path d="M188.295 81.1192C190.888 79.2111 193.653 77.365 196.483 75.5648C197.678 74.8102 198.021 73.2759 197.27 72.0815C196.903 71.4468 196.244 71.021 195.542 70.916C194.944 70.8211 194.313 70.941 193.799 71.2589C190.925 73.087 188.115 75.0021 185.439 76.9702C185.399 76.9992 185.359 77.0271 185.317 77.0561L184.952 77.327L185.023 77.339C184.644 77.7108 184.392 78.1786 184.309 78.7054C184.207 79.376 184.364 80.0137 184.78 80.5795C185.585 81.679 187.202 81.9278 188.295 81.1192Z" fill="#F8F8F8"/>
<path d="M174.666 289.5C172.341 287.269 170.042 284.898 167.795 282.426C167.432 281.974 166.897 281.711 166.335 281.625C165.559 281.505 164.808 281.714 164.26 282.246C163.756 282.709 163.451 283.308 163.416 283.991C163.388 284.669 163.614 285.314 164.073 285.817C166.38 288.372 168.776 290.829 171.224 293.19C172.194 294.132 173.856 294.064 174.795 293.124C175.14 292.747 175.357 292.272 175.464 291.783C175.59 290.975 175.328 290.106 174.729 289.546L174.666 289.5Z" fill="#F8F8F8"/>
<path d="M166.443 101.195L166.486 101.132C168.631 98.649 170.938 96.2631 173.232 93.9832C174.239 93.0197 174.239 91.3974 173.275 90.3859C172.867 89.9971 172.405 89.7452 171.84 89.6592C171.067 89.5423 170.27 89.8172 169.681 90.3739C167.219 92.8088 164.855 95.3286 162.638 97.8344C162.33 98.1862 162.159 98.629 162.051 99.0808C161.916 99.9604 162.219 100.8 162.883 101.404C163.893 102.317 165.536 102.175 166.443 101.195Z" fill="#F8F8F8"/>
<path d="M271.701 54.7801C274.893 54.8351 278.21 55.02 281.544 55.3489C282.217 55.4178 282.899 55.1969 283.399 54.7711C283.928 54.3453 284.237 53.7456 284.302 53.0689C284.43 51.7576 283.503 50.5311 282.168 50.3262C282.134 50.3222 282.097 50.3172 282.027 50.3052C278.689 50.0114 275.235 49.7715 271.79 49.7085C270.577 49.6685 269.462 50.5771 269.276 51.8085C269.225 51.9085 269.236 52.0544 269.219 52.1634C269.187 53.5627 270.306 54.7092 271.701 54.7801Z" fill="#F8F8F8"/>
<path d="M328.935 68.7522C331.81 70.1666 334.731 71.7668 337.637 73.478C338.826 74.1637 340.407 73.7209 341.085 72.5644C341.807 71.378 341.402 69.8037 340.212 69.1121C337.169 67.3499 334.149 65.6977 331.174 64.2324C330.937 64.1204 330.66 64.0435 330.415 64.0065C329.323 63.8376 328.267 64.3973 327.794 65.3688C327.686 65.6067 327.617 65.8466 327.577 66.0945C327.377 67.178 327.925 68.2725 328.935 68.7522Z" fill="#F8F8F8"/>
<path d="M354.138 84.8766C356.602 86.8766 359.044 89.0166 361.405 91.2206C362.383 92.1292 364.049 92.0602 364.956 91.0807C365.427 90.5749 365.67 89.9282 365.627 89.2715C365.624 88.5878 365.322 87.9631 364.848 87.5313C362.335 85.1595 359.725 82.9225 357.067 80.7875C356.748 80.5186 356.311 80.3077 355.889 80.2418C355.011 80.1078 354.092 80.4737 353.55 81.1823C353.245 81.5342 353.071 81.976 352.999 82.4337C352.9 83.3163 353.239 84.1619 353.941 84.7367L354.138 84.8766Z" fill="#F8F8F8"/>
<path d="M130.308 184.538C131.586 184.623 132.732 183.721 132.969 182.42C132.969 182.42 132.988 182.28 132.969 182.173C133.211 178.929 133.539 175.629 133.975 172.303C134.181 170.969 133.225 169.665 131.859 169.455C130.479 169.28 129.184 170.234 129.009 171.611C128.52 175.035 128.174 178.481 127.949 181.835C127.877 183.23 128.919 184.432 130.308 184.538Z" fill="#F8F8F8"/>
<path d="M134.988 154.653C136.363 155.045 137.746 154.248 138.126 152.939C139.001 149.791 140.06 146.638 141.22 143.536C141.463 142.887 141.423 142.195 141.117 141.606C140.853 140.99 140.348 140.518 139.703 140.275C139.532 140.212 139.389 140.192 139.216 140.164C138.057 139.986 136.905 140.672 136.489 141.761C135.327 144.902 134.247 148.195 133.265 151.539C133.248 151.648 133.194 151.782 133.174 151.925C133.023 153.127 133.807 154.328 134.988 154.653Z" fill="#F8F8F8"/>
<path d="M134.267 211.82L134.247 211.708C133.736 208.457 133.369 205.195 133.106 201.98C133.034 200.817 132.133 199.888 130.972 199.708C130.798 199.682 130.587 199.651 130.404 199.657C129.015 199.802 127.966 201.012 128.077 202.397C128.348 205.794 128.765 209.209 129.287 212.603C129.474 213.966 130.809 214.895 132.167 214.706C133.271 214.552 134.084 213.704 134.258 212.578C134.296 212.329 134.297 212.074 134.267 211.82Z" fill="#F8F8F8"/>
<path d="M141.757 240.005C140.624 237.054 139.603 234.088 138.685 231.134C138.394 230.222 137.638 229.53 136.654 229.379C136.297 229.324 135.904 229.338 135.562 229.464C134.92 229.656 134.38 230.11 134.044 230.676C133.733 231.277 133.665 231.987 133.89 232.634C134.868 235.879 136.021 239.16 137.265 242.305C137.721 243.566 139.272 244.24 140.535 243.746C141.338 243.435 141.919 242.697 142.09 241.823C142.159 241.363 142.119 240.926 141.936 240.466L141.757 240.005Z" fill="#F8F8F8"/>
<path d="M313.766 59.6833C313.972 59.0666 313.932 58.3779 313.624 57.7892C313.327 57.1655 312.783 56.7227 312.129 56.5148C308.943 55.4833 305.595 54.5347 302.263 53.7371C302.194 53.7281 302.121 53.7171 302.055 53.7061C300.752 53.5052 299.553 54.2938 299.214 55.5742C299.197 55.6832 299.185 55.7511 299.168 55.8601C298.978 57.1235 299.799 58.3349 301.082 58.6378C304.237 59.4094 307.449 60.3 310.604 61.3265C311.907 61.7433 313.35 61.0267 313.766 59.6833Z" fill="#F8F8F8"/>
<path d="M254.134 326.535C254.134 326.535 254.065 326.524 254.028 326.518C250.914 326.183 247.916 325.76 244.242 325.087L244.176 325.078C242.801 324.867 241.547 325.792 241.307 327.124C241.059 328.495 241.972 329.821 243.338 330.066C247.118 330.758 250.184 331.19 253.475 331.553C254.818 331.687 256.044 330.758 256.242 329.453L256.264 329.316C256.399 327.963 255.472 326.738 254.134 326.535Z" fill="#F8F8F8"/>
<path d="M341.071 307.185C340.476 307.091 339.882 307.22 339.365 307.536C336.701 309.182 333.795 310.791 330.744 312.377C329.531 313.019 329.014 314.525 329.651 315.777C330.299 316.957 331.873 317.489 333.045 316.874C336.055 315.317 339.049 313.617 342.018 311.833C342.652 311.465 343.077 310.808 343.196 310.033C343.282 309.468 343.157 308.876 342.839 308.356C342.469 307.725 341.813 307.299 341.071 307.185Z" fill="#F8F8F8"/>
<path d="M284.32 326.555C284.111 326.521 283.858 326.518 283.669 326.564C280.34 326.918 277.035 327.13 273.78 327.241C272.399 327.318 271.319 328.489 271.365 329.863C271.408 331.239 272.602 332.361 273.974 332.318C277.411 332.198 280.868 331.935 284.197 331.583C285.335 331.433 286.262 330.564 286.439 329.402C286.47 329.193 286.47 328.975 286.422 328.787C286.307 327.652 285.446 326.727 284.32 326.555Z" fill="#F8F8F8"/>
<path d="M313.746 320.006C313.361 319.943 312.962 319.955 312.545 320.109C309.468 321.149 306.299 322.106 303.078 322.943C302.44 323.137 301.904 323.557 301.567 324.118C301.225 324.714 301.122 325.386 301.31 326.026C301.65 327.341 303.064 328.206 304.38 327.832C307.645 326.96 310.96 325.995 314.191 324.866C315.064 324.568 315.715 323.84 315.855 322.923C315.92 322.5 315.915 322.069 315.755 321.683C315.467 320.771 314.693 320.151 313.746 320.006Z" fill="#F8F8F8"/>
<path d="M365.013 288.763C364.275 288.649 363.519 288.897 362.974 289.389L362.894 289.449C360.538 291.681 358.074 293.901 355.518 296.03C354.979 296.486 354.671 297.089 354.608 297.764C354.537 298.438 354.728 299.078 355.155 299.578C356.006 300.609 357.669 300.792 358.698 299.942C361.382 297.684 363.961 295.415 366.368 293.081C366.784 292.715 367.036 292.246 367.122 291.684C367.238 290.906 367.002 290.114 366.445 289.526C366.077 289.106 365.575 288.849 365.013 288.763Z" fill="#F8F8F8"/>
<path d="M241.384 57.4775L242.162 57.3436C245.426 56.6919 248.718 56.1522 251.943 55.7434C252.602 55.6664 253.195 55.3226 253.631 54.8148C254.04 54.2631 254.213 53.6064 254.131 52.9427C253.983 51.8062 253.116 50.9146 252.023 50.7457C251.775 50.7087 251.561 50.7117 251.342 50.7517C247.927 51.1625 244.499 51.7173 241.198 52.3659C240.155 52.5998 239.342 53.4174 239.182 54.472C239.139 54.7548 239.168 55.0457 239.231 55.3455C239.456 56.46 240.471 57.3376 241.55 57.3576L241.384 57.4775Z" fill="#F8F8F8"/>
<path d="M385.439 266.019C385.15 265.796 384.808 265.67 384.423 265.61C383.685 265.497 382.925 265.742 382.384 266.236L382.418 266.025L381.953 266.711C380.088 269.488 378.125 272.213 376.149 274.759C375.298 275.854 375.493 277.431 376.586 278.286C377.643 279.131 379.294 278.917 380.14 277.858C382.204 275.183 384.212 272.393 386.129 269.514C386.358 269.188 386.482 268.848 386.542 268.459C386.688 267.511 386.257 266.542 385.439 266.019Z" fill="#F8F8F8"/>
<path d="M359 106.288C358.019 105.305 356.41 105.305 355.429 106.288L348.287 113.442C347.305 114.426 347.305 116.04 348.287 117.019C349.268 118.003 350.851 117.977 351.832 116.996L358.974 109.84C359.956 108.859 359.981 107.27 359 106.288Z" fill="#F8F8F8"/>
<path d="M337.574 131.281C338.552 130.298 338.58 128.709 337.597 127.729C336.618 126.747 335.006 126.747 334.026 127.729L326.909 134.858C325.928 135.839 325.928 137.453 326.909 138.435C327.89 139.419 329.476 139.393 330.455 138.409L337.574 131.281Z" fill="#F8F8F8"/>
<path d="M244.894 224.122L252.039 216.967C253.02 215.984 253.043 214.396 252.065 213.413C251.083 212.433 249.472 212.433 248.494 213.413L241.349 220.571C240.367 221.55 240.367 223.164 241.349 224.148C242.33 225.131 243.915 225.105 244.894 224.122Z" fill="#F8F8F8"/>
<path d="M205.712 256.27L198.596 263.399C197.589 264.409 197.615 265.997 198.596 266.977C199.574 267.96 201.138 267.96 202.141 266.954L209.257 259.825C210.242 258.839 210.264 257.253 209.283 256.27C208.303 255.291 206.693 255.288 205.712 256.27Z" fill="#F8F8F8"/>
<path d="M312.65 149.142L305.508 156.297C304.525 157.282 304.552 158.869 305.531 159.852C306.512 160.832 308.07 160.835 309.053 159.852L316.195 152.696C317.177 151.714 317.202 150.126 316.221 149.142C315.24 148.16 313.631 148.16 312.65 149.142Z" fill="#F8F8F8"/>
<path d="M227.09 234.854L219.974 241.983C218.993 242.966 218.993 244.581 219.974 245.563C220.952 246.547 222.539 246.521 223.519 245.538L230.635 238.407C231.62 237.423 231.64 235.837 230.661 234.854C229.681 233.875 228.074 233.872 227.09 234.854Z" fill="#F8F8F8"/>
<path d="M273.443 191.997C272.462 191.017 270.853 191.017 269.872 191.997L262.753 199.129C261.771 200.112 261.774 201.724 262.753 202.706C263.734 203.69 265.317 203.664 266.301 202.68L273.417 195.552C274.399 194.569 274.424 192.98 273.443 191.997Z" fill="#F8F8F8"/>
<path d="M291.247 170.584L284.131 177.713C283.146 178.696 283.149 180.307 284.131 181.291C285.112 182.274 286.695 182.251 287.676 181.265L294.795 174.135C295.799 173.13 295.802 171.565 294.818 170.584C293.84 169.601 292.251 169.578 291.247 170.584Z" fill="#F8F8F8"/>
</g>
</g>
<defs>
<clipPath id="clip0_1_99">
<rect width="840" height="595" fill="white"/>
</clipPath>
</defs>
</svg>
