<svg width="22" height="14" viewBox="0 0 22 14" fill="none" xmlns="http://www.w3.org/2000/svg">
<mask id="path-1-inside-1_73_68" fill="white">
<path d="M0.0819787 1.3274L0.081978 4.44814C0.083675 4.69823 0.179012 4.93861 0.349187 5.12187C0.519361 5.30514 0.752026 5.41799 1.0013 5.43818C1.38636 5.46914 1.74575 5.64363 2.00823 5.92706C2.27071 6.2105 2.41713 6.5822 2.41847 6.9685C2.41705 7.35469 2.27063 7.72625 2.00824 8.00961C1.74584 8.29296 1.38659 8.46743 1.00165 8.49847C0.752378 8.51866 0.519715 8.63152 0.349539 8.81478C0.179364 8.99805 0.0840285 9.23842 0.0823319 9.48851L0.0819779 12.6124C0.0822303 12.8762 0.187104 13.129 0.37358 13.3155C0.560055 13.5019 0.812899 13.6068 1.07662 13.6071L6.05121 13.6074C6.35891 13.6068 6.66229 13.5351 6.93765 13.3978C6.99076 13.3715 7.0492 13.3579 7.10843 13.3579C7.16767 13.3579 7.22611 13.3715 7.27922 13.3978C7.55465 13.5352 7.8582 13.6068 8.16601 13.6071L20.9234 13.6071C21.1871 13.6068 21.4399 13.5019 21.6264 13.3155C21.8129 13.129 21.9178 12.8762 21.918 12.6124L21.9163 9.48992C21.9146 9.23984 21.8192 8.99946 21.649 8.8162C21.4789 8.63293 21.2462 8.52007 20.9969 8.49988C20.6109 8.47085 20.2502 8.29703 19.9869 8.01324C19.7237 7.72944 19.5774 7.35665 19.5774 6.96956C19.5774 6.58247 19.7237 6.20968 19.9869 5.92589C20.2502 5.6421 20.6109 5.46827 20.9969 5.43924C21.2462 5.41905 21.4789 5.3062 21.649 5.12293C21.8192 4.93967 21.9146 4.69929 21.9163 4.4492V1.32846C21.916 1.06474 21.8111 0.811897 21.6247 0.625421C21.4382 0.438946 21.1853 0.334072 20.9216 0.333819H8.16424C7.85658 0.334022 7.55316 0.40555 7.2778 0.542788C7.22462 0.569216 7.16605 0.58297 7.10667 0.58297C7.04728 0.582969 6.98871 0.569216 6.93553 0.542789C6.66029 0.405552 6.357 0.333905 6.04944 0.333465L1.07485 0.333819C0.811619 0.334537 0.559391 0.439472 0.373327 0.625668C0.187264 0.811864 0.0825107 1.06417 0.0819787 1.3274ZM7.10844 10.4506C7.21352 10.4506 7.31757 10.4713 7.41466 10.5115C7.51174 10.5517 7.59996 10.6106 7.67426 10.685C7.74857 10.7593 7.80751 10.8475 7.84772 10.9446C7.88792 11.0416 7.90861 11.1457 7.9086 11.2508L7.9086 12.0647C7.90548 12.2749 7.8198 12.4754 7.67008 12.6228C7.52035 12.7703 7.31861 12.853 7.10844 12.8529C6.89827 12.8529 6.69656 12.7702 6.5469 12.6226C6.39724 12.475 6.31165 12.2745 6.30862 12.0644L6.30827 11.2508C6.30826 11.1457 6.32895 11.0416 6.36915 10.9446C6.40936 10.8475 6.4683 10.7593 6.54261 10.685C6.61691 10.6106 6.70513 10.5517 6.80221 10.5115C6.8993 10.4713 7.00335 10.4506 7.10844 10.4506ZM7.10843 7.33906C7.32054 7.33913 7.52393 7.42342 7.67391 7.5734C7.82389 7.72338 7.90818 7.92677 7.90825 8.13887V8.91676C7.90825 9.12898 7.82394 9.3325 7.67388 9.48256C7.52382 9.63262 7.3203 9.71692 7.10808 9.71692C6.89586 9.71693 6.69234 9.63262 6.54228 9.48256C6.39222 9.3325 6.30792 9.12898 6.30792 8.91676V8.13887C6.30772 8.03361 6.32829 7.92935 6.36846 7.83205C6.40863 7.73476 6.4676 7.64634 6.542 7.57188C6.6164 7.49741 6.70476 7.43836 6.80202 7.39811C6.89928 7.35785 7.00353 7.33719 7.10879 7.33729L7.10843 7.33906ZM7.10843 4.22751C7.21352 4.22749 7.31757 4.24818 7.41466 4.28839C7.51175 4.3286 7.59996 4.38754 7.67426 4.46184C7.74857 4.53615 7.80751 4.62436 7.84771 4.72145C7.88792 4.81853 7.90861 4.92259 7.9086 5.02767V5.80556C7.90548 6.0157 7.8198 6.21618 7.67008 6.36367C7.52035 6.51116 7.3186 6.59381 7.10844 6.59376C6.89827 6.59372 6.69656 6.51098 6.5469 6.36342C6.39724 6.21587 6.31165 6.01535 6.30862 5.80521V5.02732C6.30819 4.922 6.32856 4.81763 6.36856 4.7202C6.40856 4.62277 6.4674 4.53419 6.54171 4.45955C6.61602 4.38492 6.70433 4.32569 6.80158 4.28526C6.89884 4.24483 7.00311 4.224 7.10844 4.22397L7.10843 4.22751ZM7.11232 1.08165C7.21741 1.08164 7.32146 1.10233 7.41855 1.14254C7.51563 1.18275 7.60385 1.24169 7.67815 1.31599C7.75246 1.39029 7.8114 1.47851 7.8516 1.57559C7.89181 1.67268 7.9125 1.77673 7.91249 1.88182L7.91037 2.69294C7.91164 2.79897 7.89182 2.9042 7.85206 3.0025C7.81231 3.1008 7.75341 3.19022 7.67878 3.26556C7.60416 3.34089 7.51531 3.40065 7.41739 3.44134C7.31947 3.48203 7.21444 3.50286 7.10841 3.5026C7.00237 3.50234 6.89744 3.48101 6.79972 3.43984C6.702 3.39867 6.61344 3.33849 6.53919 3.26279C6.46493 3.18709 6.40647 3.09738 6.36719 2.99889C6.32791 2.9004 6.30861 2.79508 6.31039 2.68905L6.31181 1.87793C6.31184 1.77285 6.33257 1.6688 6.37283 1.57173C6.41308 1.47466 6.47206 1.38648 6.54639 1.3122C6.62073 1.23793 6.70897 1.17903 6.80607 1.13887C6.90318 1.0987 7.00724 1.07806 7.11232 1.07812V1.08165Z"/>
</mask>
<path d="M0.0819787 1.3274L0.081978 4.44814C0.083675 4.69823 0.179012 4.93861 0.349187 5.12187C0.519361 5.30514 0.752026 5.41799 1.0013 5.43818C1.38636 5.46914 1.74575 5.64363 2.00823 5.92706C2.27071 6.2105 2.41713 6.5822 2.41847 6.9685C2.41705 7.35469 2.27063 7.72625 2.00824 8.00961C1.74584 8.29296 1.38659 8.46743 1.00165 8.49847C0.752378 8.51866 0.519715 8.63152 0.349539 8.81478C0.179364 8.99805 0.0840285 9.23842 0.0823319 9.48851L0.0819779 12.6124C0.0822303 12.8762 0.187104 13.129 0.37358 13.3155C0.560055 13.5019 0.812899 13.6068 1.07662 13.6071L6.05121 13.6074C6.35891 13.6068 6.66229 13.5351 6.93765 13.3978C6.99076 13.3715 7.0492 13.3579 7.10843 13.3579C7.16767 13.3579 7.22611 13.3715 7.27922 13.3978C7.55465 13.5352 7.8582 13.6068 8.16601 13.6071L20.9234 13.6071C21.1871 13.6068 21.4399 13.5019 21.6264 13.3155C21.8129 13.129 21.9178 12.8762 21.918 12.6124L21.9163 9.48992C21.9146 9.23984 21.8192 8.99946 21.649 8.8162C21.4789 8.63293 21.2462 8.52007 20.9969 8.49988C20.6109 8.47085 20.2502 8.29703 19.9869 8.01324C19.7237 7.72944 19.5774 7.35665 19.5774 6.96956C19.5774 6.58247 19.7237 6.20968 19.9869 5.92589C20.2502 5.6421 20.6109 5.46827 20.9969 5.43924C21.2462 5.41905 21.4789 5.3062 21.649 5.12293C21.8192 4.93967 21.9146 4.69929 21.9163 4.4492V1.32846C21.916 1.06474 21.8111 0.811897 21.6247 0.625421C21.4382 0.438946 21.1853 0.334072 20.9216 0.333819H8.16424C7.85658 0.334022 7.55316 0.40555 7.2778 0.542788C7.22462 0.569216 7.16605 0.58297 7.10667 0.58297C7.04728 0.582969 6.98871 0.569216 6.93553 0.542789C6.66029 0.405552 6.357 0.333905 6.04944 0.333465L1.07485 0.333819C0.811619 0.334537 0.559391 0.439472 0.373327 0.625668C0.187264 0.811864 0.0825107 1.06417 0.0819787 1.3274ZM7.10844 10.4506C7.21352 10.4506 7.31757 10.4713 7.41466 10.5115C7.51174 10.5517 7.59996 10.6106 7.67426 10.685C7.74857 10.7593 7.80751 10.8475 7.84772 10.9446C7.88792 11.0416 7.90861 11.1457 7.9086 11.2508L7.9086 12.0647C7.90548 12.2749 7.8198 12.4754 7.67008 12.6228C7.52035 12.7703 7.31861 12.853 7.10844 12.8529C6.89827 12.8529 6.69656 12.7702 6.5469 12.6226C6.39724 12.475 6.31165 12.2745 6.30862 12.0644L6.30827 11.2508C6.30826 11.1457 6.32895 11.0416 6.36915 10.9446C6.40936 10.8475 6.4683 10.7593 6.54261 10.685C6.61691 10.6106 6.70513 10.5517 6.80221 10.5115C6.8993 10.4713 7.00335 10.4506 7.10844 10.4506ZM7.10843 7.33906C7.32054 7.33913 7.52393 7.42342 7.67391 7.5734C7.82389 7.72338 7.90818 7.92677 7.90825 8.13887V8.91676C7.90825 9.12898 7.82394 9.3325 7.67388 9.48256C7.52382 9.63262 7.3203 9.71692 7.10808 9.71692C6.89586 9.71693 6.69234 9.63262 6.54228 9.48256C6.39222 9.3325 6.30792 9.12898 6.30792 8.91676V8.13887C6.30772 8.03361 6.32829 7.92935 6.36846 7.83205C6.40863 7.73476 6.4676 7.64634 6.542 7.57188C6.6164 7.49741 6.70476 7.43836 6.80202 7.39811C6.89928 7.35785 7.00353 7.33719 7.10879 7.33729L7.10843 7.33906ZM7.10843 4.22751C7.21352 4.22749 7.31757 4.24818 7.41466 4.28839C7.51175 4.3286 7.59996 4.38754 7.67426 4.46184C7.74857 4.53615 7.80751 4.62436 7.84771 4.72145C7.88792 4.81853 7.90861 4.92259 7.9086 5.02767V5.80556C7.90548 6.0157 7.8198 6.21618 7.67008 6.36367C7.52035 6.51116 7.3186 6.59381 7.10844 6.59376C6.89827 6.59372 6.69656 6.51098 6.5469 6.36342C6.39724 6.21587 6.31165 6.01535 6.30862 5.80521V5.02732C6.30819 4.922 6.32856 4.81763 6.36856 4.7202C6.40856 4.62277 6.4674 4.53419 6.54171 4.45955C6.61602 4.38492 6.70433 4.32569 6.80158 4.28526C6.89884 4.24483 7.00311 4.224 7.10844 4.22397L7.10843 4.22751ZM7.11232 1.08165C7.21741 1.08164 7.32146 1.10233 7.41855 1.14254C7.51563 1.18275 7.60385 1.24169 7.67815 1.31599C7.75246 1.39029 7.8114 1.47851 7.8516 1.57559C7.89181 1.67268 7.9125 1.77673 7.91249 1.88182L7.91037 2.69294C7.91164 2.79897 7.89182 2.9042 7.85206 3.0025C7.81231 3.1008 7.75341 3.19022 7.67878 3.26556C7.60416 3.34089 7.51531 3.40065 7.41739 3.44134C7.31947 3.48203 7.21444 3.50286 7.10841 3.5026C7.00237 3.50234 6.89744 3.48101 6.79972 3.43984C6.702 3.39867 6.61344 3.33849 6.53919 3.26279C6.46493 3.18709 6.40647 3.09738 6.36719 2.99889C6.32791 2.9004 6.30861 2.79508 6.31039 2.68905L6.31181 1.87793C6.31184 1.77285 6.33257 1.6688 6.37283 1.57173C6.41308 1.47466 6.47206 1.38648 6.54639 1.3122C6.62073 1.23793 6.70897 1.17903 6.80607 1.13887C6.90318 1.0987 7.00724 1.07806 7.11232 1.07812V1.08165Z" stroke="#5a5a5a" stroke-width="2" mask="url(#path-1-inside-1_73_68)"/>
</svg>
